<?xml version="1.0" encoding="UTF-8"?>
<svg width="32px" height="32px" viewBox="0 0 32 32" version="1.1" xmlns="http://www.w3.org/2000/svg" xmlns:xlink="http://www.w3.org/1999/xlink">
    <!-- Generator: Sketch 46.2 (44496) - http://www.bohemiancoding.com/sketch -->
    <title>AddPrimitiveIcon</title>
    <desc>Created with Sketch.</desc>
    <defs>
        <rect id="path-1" x="0" y="0" width="24" height="24" rx="5"></rect>
        <mask id="mask-2" maskContentUnits="userSpaceOnUse" maskUnits="objectBoundingBox" x="0" y="0" width="24" height="24" fill="white">
            <use xlink:href="#path-1"></use>
        </mask>
        <linearGradient x1="50%" y1="0%" x2="50%" y2="100%" id="linearGradient-3">
            <stop stop-color="#A6AAAB" stop-opacity="0.176177536" offset="0%"></stop>
            <stop stop-color="#6D7173" stop-opacity="0.176177536" offset="100%"></stop>
        </linearGradient>
        <rect id="path-4" x="0" y="0" width="24" height="24" rx="5"></rect>
        <mask id="mask-5" maskContentUnits="userSpaceOnUse" maskUnits="objectBoundingBox" x="0" y="0" width="24" height="24" fill="white">
            <use xlink:href="#path-4"></use>
        </mask>
        <path d="M22.7586207,19.2413791 L22.7586207,22.7586157 L19.2413793,22.7586157 C18.5557862,22.7586157 18,23.3143812 18,24.000001 C18,24.6855733 18.5557862,25.2413801 19.2413793,25.2413801 L22.7586207,25.2413801 L22.7586207,28.7586209 C22.7586207,29.4442139 23.3144276,30 24,30 C24.6856138,30 25.2413793,29.4442139 25.2413793,28.7586209 L25.2413793,25.2413801 L28.7586207,25.2413801 C29.4442138,25.2413801 30,24.6855733 30,24.000001 C30,23.3143812 29.4442138,22.7586157 28.7586207,22.7586157 L25.2413793,22.7586157 L25.2413793,19.2413791 C25.2413793,18.5557861 24.6856138,18 24,18 C23.3144276,18 22.7586207,18.5557861 22.7586207,19.2413791 Z" id="path-6"></path>
    </defs>
    <g id="Site-Mockups" stroke="none" stroke-width="1" fill="none" fill-rule="evenodd">
        <g id="Modification" transform="translate(-1165.000000, -921.000000)">
            <g id="Floating-Toolbar-Concept-Mobile" transform="translate(1106.000000, 906.000000)">
                <g id="Controls" transform="translate(15.000000, 0.000000)">
                    <g id="AddPrimitiveIcon" transform="translate(44.000000, 15.000000)">
                        <use id="Selected-Object-Copy" stroke-opacity="0.176177536" stroke="#6D7173" mask="url(#mask-2)" stroke-width="2" stroke-dasharray="3" xlink:href="#path-1"></use>
                        <use id="Selected-Object-Copy-2" stroke="url(#linearGradient-3)" mask="url(#mask-5)" stroke-width="2" stroke-dasharray="3" xlink:href="#path-4"></use>
                        <g id="Shape" fill-rule="nonzero">
                            <use fill="#6D7173" fill-rule="evenodd" xlink:href="#path-6"></use>
                            <path stroke="#FFFFFF" stroke-width="2" d="M26.2413793,21.7586157 L28.7586207,21.7586157 C29.9965048,21.7586157 31,22.7621027 31,24.000001 C31,25.2378627 29.9964939,26.2413801 28.7586207,26.2413801 L26.2413793,26.2413801 L26.2413793,28.7586209 C26.2413793,29.9965032 25.2378939,31 24,31 C22.7621383,31 21.7586207,29.9964941 21.7586207,28.7586209 L21.7586207,26.2413801 L19.2413793,26.2413801 C18.0035061,26.2413801 17,25.2378627 17,24.000001 C17,22.7621027 18.0034952,21.7586157 19.2413793,21.7586157 L21.7586207,21.7586157 L21.7586207,19.2413791 C21.7586207,18.0035059 22.7621383,17 24,17 C25.2378939,17 26.2413793,18.0034968 26.2413793,19.2413791 L26.2413793,21.7586157 Z"></path>
                        </g>
                    </g>
                </g>
            </g>
        </g>
    </g>
</svg>