<?xml version="1.0" encoding="UTF-8"?>
<svg width="19px" height="20px" viewBox="0 0 19 20" version="1.1" xmlns="http://www.w3.org/2000/svg" xmlns:xlink="http://www.w3.org/1999/xlink">
    <!-- Generator: Sketch 46.2 (44496) - http://www.bohemiancoding.com/sketch -->
    <title>GenerateCodeIcon</title>
    <desc>Created with Sketch.</desc>
    <defs></defs>
    <g id="Site-Mockups" stroke="none" stroke-width="1" fill="none" fill-rule="evenodd">
        <g id="Modification" transform="translate(-1276.000000, -926.000000)" fill-rule="nonzero" fill="#6D7173">
            <g id="Floating-Toolbar-Concept-Mobile" transform="translate(1106.000000, 906.000000)">
                <g id="Controls" transform="translate(15.000000, 0.000000)">
                    <g id="Navigation" transform="translate(155.000000, 20.000000)">
                        <g id="GenerateCodeIcon">
                            <path d="M16.7701779,0 L1.34588689,0 C0.598171951,0 0,0.598410472 0,1.34642356 L0,13.8916717 C0,14.618313 0.598171951,15.2380952 1.34588689,15.2380952 L3.69584813,15.2380952 L3.65312156,14.832031 C3.63175827,14.5541976 3.65312156,14.2763641 3.69584813,13.9985307 L1.34588689,13.9985307 C1.30316032,13.9985307 1.23907047,13.9557871 1.23907047,13.8916717 L1.23907047,3.93241167 L16.855631,3.93241167 L16.855631,13.8916717 C16.855631,13.9344153 16.8129045,13.9985307 16.7488146,13.9985307 L14.3988534,13.9985307 C14.44158,14.2549923 14.4629432,14.5328258 14.44158,14.832031 L14.3988534,15.2380952 L16.7488146,15.2380952 C17.4965296,15.2380952 18.0947015,14.6396848 18.0947015,13.8916717 L18.0947015,1.34642356 C18.1160648,0.598410472 17.4965296,0 16.7701779,0 Z M2.22178153,2.54324451 C1.90133227,2.54324451 1.64497286,2.28678288 1.64497286,1.96620584 C1.64497286,1.6456288 1.90133227,1.38916717 2.22178153,1.38916717 C2.54223079,1.38916717 2.7985902,1.6456288 2.7985902,1.96620584 C2.7985902,2.26541107 2.54223079,2.54324451 2.22178153,2.54324451 Z M3.97357082,2.54324451 C3.65312156,2.54324451 3.39676215,2.28678288 3.39676215,1.96620584 C3.39676215,1.6456288 3.65312156,1.38916717 3.97357082,1.38916717 C4.29402008,1.38916717 4.55037948,1.6456288 4.55037948,1.96620584 C4.55037948,2.26541107 4.29402008,2.54324451 3.97357082,2.54324451 Z M5.7253601,2.54324451 C5.40491084,2.54324451 5.14855143,2.28678288 5.14855143,1.96620584 C5.14855143,1.6456288 5.40491084,1.38916717 5.7253601,1.38916717 C6.04580936,1.38916717 6.30216877,1.6456288 6.30216877,1.96620584 C6.30216877,2.26541107 6.04580936,2.54324451 5.7253601,2.54324451 Z" id="Shape"></path>
                            <path d="M12.1549485,12.7468363 L11.955911,12.6602152 L11.955911,10.2131691 C11.955911,9.21702646 11.6020665,8.24253908 10.9386081,7.48460445 L9.63380661,5.99039047 C9.32419269,5.6222508 8.74919541,5.6222508 8.4395815,5.99039047 L7.13477999,7.48460445 C6.47132159,8.24253908 6.11747712,9.21702646 6.11747712,10.2131691 L6.11747712,12.6385599 L5.9184396,12.725181 C5.1444048,13.0716654 4.70209921,13.8512553 4.76844505,14.6741558 L4.92325201,16.5581647 C4.94536729,16.818028 5.23286592,16.9912702 5.476134,16.8829938 C6.09536184,16.6014753 6.73670495,16.4065778 7.40016334,16.2983014 L7.40016334,16.7963727 C7.40016334,16.9912702 7.5549703,17.1428571 7.75400782,17.1428571 L10.3414956,17.1428571 C10.5405331,17.1428571 10.69534,16.9912702 10.69534,16.7963727 L10.69534,16.2983014 C11.3587984,16.4065778 12.0001415,16.6014753 12.6193694,16.8829938 C12.8626375,16.9912702 13.1501361,16.8396833 13.1722514,16.5581647 L13.3270583,14.6741558 C13.3934042,13.8512553 12.9289833,13.0933207 12.1549485,12.7468363 Z M9.01457877,11.9022806 C8.41746622,11.9022806 7.93093006,11.4258645 7.93093006,10.8411721 C7.93093006,10.2564797 8.41746622,9.78006361 9.01457877,9.78006361 C9.61169133,9.78006361 10.0982275,10.2564797 10.0982275,10.8411721 C10.0982275,11.4258645 9.61169133,11.9022806 9.01457877,11.9022806 Z" id="Shape"></path>
                            <path d="M10.9513756,17.1428571 C10.6873839,17.1428571 10.4761905,17.3160173 10.4761905,17.5324675 L10.4761905,18.6580087 C10.4761905,18.8744589 10.6873839,19.047619 10.9513756,19.047619 C11.2153673,19.047619 11.4265607,18.8744589 11.4265607,18.6580087 L11.4265607,17.5324675 C11.4529599,17.3160173 11.2153673,17.1428571 10.9513756,17.1428571 Z" id="Shape"></path>
                            <path d="M9.04761905,17.1428571 C8.78306878,17.1428571 8.57142857,17.3333333 8.57142857,17.5714286 L8.57142857,19.5714286 C8.57142857,19.8095238 8.78306878,20 9.04761905,20 C9.31216931,20 9.52380952,19.8095238 9.52380952,19.5714286 L9.52380952,17.5714286 C9.52380952,17.3333333 9.31216931,17.1428571 9.04761905,17.1428571 Z" id="Shape"></path>
                            <path d="M8.0952381,17.1428571 C7.83068783,17.1428571 7.61904762,17.3160173 7.61904762,17.5324675 L7.61904762,18.6580087 C7.61904762,18.8744589 7.83068783,19.047619 8.0952381,19.047619 C8.35978836,19.047619 8.57142857,18.8744589 8.57142857,18.6580087 L8.57142857,17.5324675 C8.57142857,17.3160173 8.35978836,17.1428571 8.0952381,17.1428571 Z" id="Shape"></path>
                        </g>
                    </g>
                </g>
            </g>
        </g>
    </g>
</svg>